<?xml version="1.0" encoding="utf-8"?>
<!-- Generator: Adobe Illustrator 23.0.4, SVG Export Plug-In . SVG Version: 6.00 Build 0)  -->
<svg version="1.1" id="Layer_1" xmlns="http://www.w3.org/2000/svg" xmlns:xlink="http://www.w3.org/1999/xlink" x="0px" y="0px"
	 viewBox="0 0 1130 350" style="enable-background:new 0 0 1130 350;" xml:space="preserve">
<style type="text/css">
	.st0{fill:#FF0000;}
</style>
<g>
	<path d="M234.1,65.9c-14.9-48.9-72.6-65.1-124.3-49.5C58.1,32.2,32.1,82.1,47,130.9c9.5,31.2,43,56.4,78.5,64.3L113.7,274
		l-65.4-85.8H20.1v139.3h30.3V239l67.9,99.8l36.4-11.4l3.7-130.1c8.8-1,17.4-3.2,25.2-7.2C239.9,161.9,248.9,114.8,234.1,65.9z
		 M151.5,169.3c-38,0-76.7-30.1-76.7-65.9c0-35.8,24-69.2,62-69.2c38,0,67.6,28.1,75.5,69.2C219.1,138.5,189.5,169.3,151.5,169.3z"
		/>
	<path class="st0" d="M185.8,102.3c-9,24.8-31.1,42.8-54.1,42.8c-23,0-36.1-19.1-29.3-42.8c6.5-22.7,19.3-37.4,41.7-42.8
		C172.3,52.7,193.9,80.1,185.8,102.3"/>
	<g>
		<polygon points="377.6,138.5 395.7,138.5 395.7,242.9 380.3,242.9 322.6,168.6 322.6,242.9 304.6,242.9 304.6,138.5 321.6,138.5 
			377.6,210.7 		"/>
		<g>
			<path d="M465.8,153.6c-20.8,0-35.2,16.6-35.2,37c0,20.4,14.8,37.3,35.6,37.3c20.8,0,35.2-16.6,35.2-37
				C501.4,170.4,486.6,153.6,465.8,153.6 M465.8,244.7c-32.1,0-54.5-24.3-54.5-53.9c0-29.6,22.7-54.2,54.8-54.2
				c32.1,0,54.5,24.3,54.5,53.9C520.7,220.1,498,244.7,465.8,244.7"/>
		</g>
		<polygon points="603.3,138.5 623.2,138.5 579.7,243.7 563.6,243.7 520.1,138.5 540.4,138.5 571.9,218.8 		"/>
		<path d="M663.5,159.7l-17.9,41.8h36L663.5,159.7z M718.3,242.9h-19.4l-10.6-25.2h-49.5l-10.8,25.2h-18.8l46-105.2h17L718.3,242.9z
			"/>
		<g>
			<path d="M797.2,212.2c0-9-7-14.2-21.5-14.2h-29.1v28.6H777C789.6,226.7,797.2,221.7,797.2,212.2 M791.3,168.2
				c0-8.5-6.6-13.4-18.4-13.4h-26.5v27.8h25.1C783.4,182.5,791.3,177.9,791.3,168.2 M809.7,165.2c0,12.8-7.2,19.4-14.9,23.4
				c12.3,4.2,20.8,11.2,20.8,25.5c0,18.8-15.4,28.8-38.7,28.8h-48.4V138.5h46.9C796.4,138.5,809.7,148.8,809.7,165.2"/>
		</g>
		<path d="M872.4,159.7l-17.9,41.8h36L872.4,159.7z M927.2,242.9h-19.4l-10.6-25.2h-49.5L837,242.9h-18.8l46-105.2h17L927.2,242.9z"
			/>
		<g>
			<path d="M978.4,182.3c22.1,5.4,33.6,13.3,33.6,30.7c0,19.7-15.4,31.3-37.4,31.3c-16,0-31.1-5.5-43.6-16.7l11.1-13.1
				c10,8.7,20,13.6,33,13.6c11.4,0,18.5-5.2,18.5-13.3c0-7.6-4.2-11.6-23.6-16.1c-22.3-5.4-34.8-11.9-34.8-31.3
				c0-18.2,14.9-30.4,35.7-30.4c15.2,0,27.3,4.6,37.9,13.1L999,164c-9.4-7-18.8-10.7-28.4-10.7c-10.8,0-17,5.5-17,12.5
				C953.6,174,958.4,177.6,978.4,182.3"/>
		</g>
		<polygon points="1104.6,154.9 1045.4,154.9 1045.4,182.1 1097.8,182.1 1097.8,198.5 1045.4,198.5 1045.4,226.5 1105.3,226.5 
			1105.3,242.9 1027,242.9 1027,138.5 1104.6,138.5 		"/>
	</g>
</g>
</svg>
