<?xml version="1.0" encoding="utf-8"?>
<!-- Generator: Adobe Illustrator 16.0.3, SVG Export Plug-In . SVG Version: 6.00 Build 0)  -->
<!DOCTYPE svg PUBLIC "-//W3C//DTD SVG 1.1//EN" "http://www.w3.org/Graphics/SVG/1.1/DTD/svg11.dtd">
<svg version="1.1" id="Layer_1" xmlns="http://www.w3.org/2000/svg" xmlns:xlink="http://www.w3.org/1999/xlink" x="0px" y="0px"
	 width="748.53px" height="216.176px" viewBox="0 0 748.53 216.176" enable-background="new 0 0 748.53 216.176"
	 xml:space="preserve">
<g>
	<path fill="#ffffff" d="M153.51,25.223c-4.861,4.949-13.15,14.929-15.463,22.501c-2.707,8.87-4.798,12.822,3.624,37.563
		c9.074,26.66,16.297,53.207-14.252,79.972c-32.492,28.469-63.982,45.314-63.982,45.314c22.824-36.761,13.619-72.724,36.797-90.538
		c1.172-0.9,1.852-1.418,1.852-1.418s-19.699,5.11-42.359-1.455C36.18,110.343,5.081,77.837,5.081,77.837s34.889,19.242,69.59,2.488
		c19.023-9.186,27.574-5.133,31.381-0.359c3.809,4.774-20.023-26.764-3.613-41.357c15.184-13.5,30.484-2.215,30.484-2.215
		c11.979-11.115,42.237-30.352,42.237-30.352S158.487,20.156,153.51,25.223z"/>
	<g>
		<g>
			<path fill="#ffffff" d="M196.188,192.077v-82.396h7.373v82.396H196.188z"/>
			<path fill="#ffffff" d="M214.489,120.396v-10.953h7.373v10.953H214.489z M214.489,192.077v-61.323h7.373v61.323H214.489z"/>
			<path fill="#ffffff" d="M245.573,125.517v5.236h14.744v4.169h-14.744v57.154H238.2v-57.154h-6.377v-4.169h6.377v-5.475
				c0-9.766,5.779-16.074,22.715-15.955v4.287C248.561,113.373,245.573,117.896,245.573,125.517z"/>
			<path fill="#ffffff" d="M289.418,193.029c-13.35,0-22.715-5.359-22.715-16.313v-30.6c0-10.955,9.365-16.313,22.715-16.313
				c13.352,0,22.717,5.357,22.717,16.313v15.836h-38.059v14.764c0,7.741,5.779,12.025,15.342,12.025
				c9.566,0,15.344-4.284,15.344-12.025v-1.668h7.373v1.668C312.135,187.669,302.77,193.029,289.418,193.029z M304.762,146.117
				c0-7.739-5.777-12.026-15.344-12.026c-9.563,0-15.342,4.287-15.342,12.026v11.549h30.686V146.117z"/>
			<path fill="#ffffff" d="M363.45,193.029c-13.35,0-22.715-5.359-22.715-16.313v-30.6c0-10.955,9.365-16.313,22.715-16.313
				c13.352,0,22.717,5.357,22.717,16.313v15.836h-38.059v14.764c0,7.741,5.779,12.025,15.342,12.025
				c9.566,0,15.344-4.284,15.344-12.025v-1.668h7.373v1.668C386.167,187.669,376.801,193.029,363.45,193.029z M378.793,146.117
				c0-7.739-5.777-12.026-15.344-12.026c-9.563,0-15.342,4.287-15.342,12.026v11.549h30.686V146.117z"/>
			<path fill="#ffffff" d="M466.842,193.077v-45.96c0-8.1-3.588-12.026-12.953-12.026c-10.162,0-15.143,4.88-15.143,13.337v44.649h-7.373v-45.96
				c0-8.1-3.586-12.026-12.953-12.026c-10.162,0-15.143,4.88-15.143,13.337v44.649h-7.373v-61.323h6.775v5.24
				c2.789-3.93,8.768-6.189,15.941-6.189c9.563,0,14.744,2.737,17.336,7.143c2.789-4.405,9.762-7.143,18.13-7.143
				c13.95,0,20.125,5,20.125,16.313v45.96H466.842z"/>
			<path fill="#ffffff" d="M507.075,194.029c-13.35,0-22.715-5.359-22.715-16.313v-30.6c0-10.955,9.365-16.313,22.715-16.313
				s22.715,5.357,22.715,16.313v30.6C529.79,188.669,520.424,194.029,507.075,194.029z M522.418,147.117
				c0-7.739-5.779-12.026-15.344-12.026s-15.344,4.287-15.344,12.026v30.6c0,7.741,5.779,12.025,15.344,12.025
				s15.344-4.284,15.344-12.025V147.117z"/>
			<path fill="#ffffff" d="M546.534,177.597v-41.675h-8.17v-4.169h8.17l0.012-21.597h7.371l-0.01,21.597h13.748v4.169h-13.748v41.437
				c0,7.619,2.99,12.145,15.342,11.906v4.287C552.313,193.672,546.534,187.359,546.534,177.597z"/>
			<path fill="#ffffff" d="M574.606,121.396v-10.953h7.373v10.953H574.606z M574.606,193.077v-61.323h7.373v61.323H574.606z"/>
			<path fill="#ffffff" d="M614.63,194.029c-13.349,0-22.714-5.359-22.714-16.313v-30.6c0-10.955,9.365-16.313,22.714-16.313
				c13.353,0,22.718,5.357,22.718,16.313v30.6C637.348,188.669,627.983,194.029,614.63,194.029z M629.975,147.117
				c0-7.739-5.779-12.026-15.345-12.026c-9.563,0-15.341,4.287-15.341,12.026v30.6c0,7.741,5.777,12.025,15.341,12.025
				c9.565,0,15.345-4.284,15.345-12.025V147.117z"/>
			<path fill="#ffffff" d="M682.548,193.077v-45.96c0-8.1-3.983-12.026-13.349-12.026c-10.162,0-15.543,4.88-15.543,13.337v44.649h-7.371v-61.323
				h6.773v5.24c2.789-3.93,9.166-6.189,16.34-6.189c13.947,0,20.522,5,20.522,16.313v45.96H682.548z"/>
			<path fill="#ffffff" d="M735.752,148.187v-3.093c0-5.717-4.383-10.004-13.15-10.004s-13.947,3.81-13.947,9.766c0,4.522,3.188,7.738,8.566,10.714
				l16.141,8.811c6.975,3.813,11.357,8.096,11.357,14.645c0,8.931-8.369,15.004-22.516,15.004c-16.141,0-22.119-7.145-22.119-15.479
				v-2.502h7.373v2.502c0,6.907,5.182,11.311,14.746,11.311s14.943-4.287,14.943-10.836c0-4.523-3.188-8.096-8.566-11.072
				l-16.141-8.81c-6.976-3.81-11.359-7.739-11.359-14.287c0-8.577,7.771-14.052,21.521-14.052c13.549,0,20.523,5.715,20.523,14.29
				c0,0.952,0,3.093,0,3.093H735.752z"/>
		</g>
	</g>
</g>
</svg>
